<svg fill="none" height="59" viewBox="0 0 54 59" width="54" xmlns="http://www.w3.org/2000/svg">
<rect fill="#950000" height="51" rx="6" width="42"/>
<g fill="#FFF">
    <path d="m6 8h30v2h-30z"/>
    <path d="m6 13h30v2h-30z"/>
    <path d="m6 18h30v2h-30z"/>
    <path d="m6 23h30v2h-30z"/>
    <path d="m6 28h24v2h-24z"/>
    <path d="m6 33h22v2h-22z"/>
</g>
<g fill="#BE2626">
    <path d="m42.5 25c-6.3509 0-11.5 5.0745-11.5 11.3333 0 8.5 11.5 22.6667 11.5 22.6667s11.5-14.1667 11.5-22.6667c0-6.2588-5.1491-11.3333-11.5-11.3333zm0 17c-3.174 0-5.75-2.5387-5.75-5.6667s2.576-5.6666 5.75-5.6666 5.75 2.5386 5.75 5.6666-2.576 5.6667-5.75 5.6667z"/>
    <circle cx="43" cy="37" r="7"/>
</g>
<g stroke="white" stroke-width="2" fill="none">
  <path d="M 35 36 l 14 0" />
  <path d="M 42 30 l 0 20" />
</g>
</svg>